<?xml version="1.0" encoding="UTF-8"?>
<svg width="667px" height="667px" viewBox="0 0 667 667" version="1.1" xmlns="http://www.w3.org/2000/svg" xmlns:xlink="http://www.w3.org/1999/xlink">
    <title>star-svgrepo-com(1)</title>
    <g id="Page-4" stroke="none" stroke-width="1" fill="none" fill-rule="evenodd">
        <g id="star-svgrepo-com(1)" fill="#1C274C" fill-rule="nonzero">
            <path d="M333.330065,0 C364.890065,0 386.000065,37.8706667 428.223398,113.612333 L439.146731,133.208 C451.143398,154.731333 457.143398,165.493 466.496731,172.593667 C475.850065,179.694333 487.500065,182.33 510.800065,187.601667 L532.010065,192.401 C614.000065,210.952 654.993398,220.227333 664.746731,251.591 C674.500065,282.953333 646.553398,315.636667 590.660065,380.996667 L576.196731,397.906667 C560.313398,416.48 552.373398,425.766667 548.800065,437.256667 C545.226731,448.746667 546.426731,461.136667 548.830065,485.92 L549.443398,492.246667 C528.230065,497.316667 506.093398,500 483.330065,500 L483.332,500 C505.567352,500 527.206627,497.440022 547.965459,492.596512 L549.446731,492.246667 L551.020065,508.48 C559.470065,595.686667 563.696731,639.29 538.163398,658.673333 C512.626731,678.056667 474.243398,660.386667 397.476731,625.04 L377.616731,615.893333 C355.803398,605.85 344.896731,600.83 333.333398,600.83 C321.770065,600.83 310.863398,605.85 289.050065,615.893333 L269.190065,625.04 C192.422398,660.386667 154.039065,678.056667 128.505065,658.673333 C102.970731,639.29 107.196065,595.686667 115.646731,508.48 L117.832731,485.92 C120.234398,461.136667 121.435065,448.746667 117.862065,437.256667 C114.289398,425.766667 106.347398,416.48 90.4640647,397.906667 L76.0033981,380.996667 C20.1083981,315.636667 -7.83926862,282.956667 1.91406472,251.591333 C11.6673981,220.227333 52.6620647,210.952 134.651398,192.401333 L155.863065,187.602 C179.161731,182.330333 190.811065,179.694333 200.164731,172.593667 C201.477398,171.597333 202.724065,170.528667 203.930398,169.368333 L203.924,169.374 L203.95065,169.34427 C211.328882,162.236775 217.208101,151.689946 227.510731,133.207667 L238.434065,113.612667 C280.656731,37.871 301.766731,0 333.330065,0 Z" id="Combined-Shape"></path>
        </g>
    </g>
</svg>